<?xml version="1.0" encoding="UTF-8"?>
<svg width="168px" height="168px" viewBox="0 0 168 168" version="1.1" xmlns="http://www.w3.org/2000/svg" xmlns:xlink="http://www.w3.org/1999/xlink">
    <!-- Generator: Sketch 55 (78076) - https://sketchapp.com -->
    <title>illu/alternative_libre</title>
    <desc>Created with Sketch.</desc>
    <defs>
        <path d="M38.75248,44.0801971 C37.0772337,40.6504107 32.2515242,37.8442218 26.6381988,39.4780473 C23.9558792,40.2509825 21.6156035,41.908562 19.9997228,44.1799728 C18.3838421,41.908562 16.0435663,40.2509825 13.3612467,39.4780473 C7.73541951,37.8691657 2.92221182,40.6504107 1.2469655,44.0801971 C-1.10338007,48.8818982 -0.128236697,54.2822528 4.14739196,60.1315977 C7.49788459,64.7088037 12.2860886,69.3483693 19.2371106,74.7362521 C19.6890798,75.087916 20.3228675,75.087916 20.7748367,74.7362521 C27.7133569,69.3608413 32.5140628,64.7586915 35.8645554,60.1315977 C40.1276822,54.2822528 41.1028256,48.8818982 38.75248,44.0801971 Z" id="path-1"></path>
        <path d="M103.75248,5.08019715 C102.077234,1.6504107 97.2515242,-1.15577822 91.6381988,0.478047327 C88.9558792,1.25098247 86.6156035,2.90856201 84.9997228,5.17997275 C83.3838421,2.90856201 81.0435663,1.25098247 78.3612467,0.478047327 C72.7354195,-1.13083432 67.9222118,1.6504107 66.2469655,5.08019715 C63.8966199,9.88189818 64.8717633,15.2822528 69.147392,21.1315977 C72.4978846,25.7088037 77.2860886,30.3483693 84.2371106,35.7362521 C84.6890798,36.087916 85.3228675,36.087916 85.7748367,35.7362521 C92.7133569,30.3608413 97.5140628,25.7586915 100.864555,21.1315977 C105.127682,15.2822528 106.102826,9.88189818 103.75248,5.08019715 Z" id="path-3"></path>
        <path d="M107.001984,79.092381 C105.661787,76.3294975 101.801219,74.0689564 97.3105591,75.3850937 C95.1647034,76.0077359 93.2924828,77.3430083 91.9997782,79.1727558 C90.7070737,77.3430083 88.8348531,76.0077359 86.6889974,75.3850937 C82.1883356,74.0890501 78.3377695,76.3294975 76.9975724,79.092381 C75.1172959,82.960418 75.8974106,87.3107037 79.3179136,92.022676 C81.9983077,95.7098696 85.8288709,99.4472975 91.3896885,103.787536 C91.7512639,104.070821 92.258294,104.070821 92.6198694,103.787536 C98.1706855,99.4573444 102.01125,95.750057 104.691644,92.022676 C108.102146,87.3107037 108.88226,82.960418 107.001984,79.092381 Z" id="path-5"></path>
    </defs>
    <g id="illu/alternative_libre" stroke="none" stroke-width="1" fill="none" fill-rule="evenodd">
        <circle id="Oval" fill-opacity="0.2" fill="#684971" cx="84" cy="84" r="70"></circle>
        <rect id="Rectangle" fill="#FFFFFF" x="63" y="51" width="42" height="66" rx="3"></rect>
        <g id="illu/alt_libre" transform="translate(14.000000, 14.000000)">
            <g id="Group-5" transform="translate(15.000000, 18.000000)">
                <path d="M75.2222222,12 L34.7777778,12 C31.5867992,12 29,14.5903525 29,17.7857143 L29,87.2142857 C29,90.4096475 31.5867992,93 34.7777778,93 L75.2222222,93 C78.4132008,93 81,90.4096475 81,87.2142857 L81,17.7857143 C81,14.5903525 78.4132008,12 75.2222222,12 Z M57.6896552,87.6 L52.3103448,87.6 L52.3103448,82.2 L57.6896552,82.2 L57.6896552,87.6 Z M34.3793103,75 L34.3793103,17.4 L75.6206897,17.4 L75.6206897,75 L34.3793103,75 Z" id="Mask" fill="#684971"></path>
                <mask id="mask-2" fill="white">
                    <use xlink:href="#path-1"></use>
                </mask>
                <path stroke="#FFFFFF" stroke-width="2" d="M39.6508389,43.6409347 C42.1804866,48.8093309 41.1389573,54.592526 36.674511,60.718089 C33.3006917,65.3773973 28.4826762,70.0298208 21.3889213,75.5254923 C20.5757856,76.1581692 19.4361618,76.1581692 18.6244793,75.5266208 C11.6158912,70.0941175 6.75812832,65.3912187 3.34007365,60.721714 C-1.13739492,54.5962386 -2.18243762,48.8117989 0.348422195,43.6413123 C2.44946976,39.339769 8.0193992,36.9102895 13.6381392,38.5171464 C16.1138736,39.2305521 18.3201796,40.6412305 19.9997198,42.567037 C21.6792127,40.6412453 23.885197,39.2306607 26.358734,38.5178914 C31.959736,36.8876527 37.545013,39.3301338 39.6508389,43.6409347 Z"></path>
                <mask id="mask-4" fill="white">
                    <use xlink:href="#path-3"></use>
                </mask>
                <path stroke="#FFFFFF" stroke-width="2" d="M104.650839,4.64093467 C107.180487,9.80933088 106.138957,15.592526 101.674511,21.718089 C98.3006917,26.3773973 93.4826762,31.0298208 86.3889213,36.5254923 C85.5757856,37.1581692 84.4361618,37.1581692 83.6244793,36.5266208 C76.6158912,31.0941175 71.7581283,26.3912187 68.3400737,21.721714 C63.8626051,15.5962386 62.8175624,9.81179887 65.3484222,4.64131228 C67.4494698,0.339769036 73.0193992,-2.08971052 78.6381392,-0.482853585 C81.1138736,0.230552138 83.3201796,1.64123048 84.9997198,3.56703699 C86.6792127,1.64124526 88.885197,0.230660732 91.358734,-0.482108589 C96.959736,-2.11234728 102.545013,0.330133779 104.650839,4.64093467 Z"></path>
                <mask id="mask-6" fill="white">
                    <use xlink:href="#path-5"></use>
                </mask>
                <path stroke="#FFFFFF" stroke-width="2" d="M107.901537,78.6555683 C109.959149,82.8887979 109.11301,87.6196186 105.503521,92.6065043 C102.792061,96.3770859 98.9248877,100.13728 93.2365999,104.574711 C92.5128331,105.141763 91.4967248,105.141763 90.7744099,104.575846 C85.1541275,100.189195 81.2552759,96.3884253 78.5086561,92.6101301 C74.8882455,87.6227715 74.0392437,82.8908083 76.0978372,78.6559448 C77.8206814,75.1042151 82.3774215,73.1028638 86.9676638,74.4247057 C88.9115829,74.9887539 90.6513994,76.0835707 91.9997729,77.5753338 C93.3480788,76.0835924 95.0875161,74.9888873 97.0293065,74.4254599 C101.605426,73.0842761 106.17481,75.0963563 107.901537,78.6555683 Z"></path>
            </g>
        </g>
    </g>
</svg>