<?xml version="1.0" encoding="UTF-8"?>
<svg width="18px" height="18px" viewBox="0 0 18 18" version="1.1" xmlns="http://www.w3.org/2000/svg" xmlns:xlink="http://www.w3.org/1999/xlink">
    <!-- Generator: Sketch 55 (78076) - https://sketchapp.com -->
    <title>icone/close</title>
    <desc>Created with Sketch.</desc>
    <defs>
        <path d="M10.4695754,8.95046022 L17.7595754,1.66046022 C18.0993522,1.26369995 18.0765077,0.672266051 17.7071386,0.302897002 C17.3377696,-0.066472047 16.7463357,-0.0893165733 16.3495754,0.250460223 L9.05957539,7.54046022 L1.76957539,0.240460223 C1.37281511,-0.0993165733 0.781381218,-0.076472047 0.412012169,0.292897002 C0.0426431201,0.662266051 0.0197985938,1.25369995 0.35957539,1.65046022 L7.64957539,8.95046022 L0.34957539,16.2404602 C0.06419923,16.4848501 -0.0601065545,16.8685786 0.0277652548,17.2338792 C0.115637064,17.5991798 0.40085584,17.8843985 0.766156417,17.9722704 C1.13145699,18.0601422 1.51518551,17.9358364 1.75957539,17.6504602 L9.05957539,10.3604602 L16.3495754,17.6504602 C16.7463357,17.990237 17.3377696,17.9673925 17.7071386,17.5980234 C18.0765077,17.2286544 18.0993522,16.6372205 17.7595754,16.2404602 L10.4695754,8.95046022 Z" id="path-1"></path>
    </defs>
    <g id="icone/close" stroke="none" stroke-width="1" fill="none" fill-rule="evenodd">
        <mask id="mask-2" fill="white">
            <use xlink:href="#path-1"></use>
        </mask>
        <use id="Mask" fill="#FFFFFF" fill-rule="nonzero" xlink:href="#path-1"></use>
    </g>
</svg>