<?xml version="1.0" encoding="UTF-8"?>
<svg width="33px" height="25px" viewBox="0 0 33 25" version="1.1" xmlns="http://www.w3.org/2000/svg" xmlns:xlink="http://www.w3.org/1999/xlink">
    <!-- Generator: Sketch 55 (78076) - https://sketchapp.com -->
    <title>icone/contact</title>
    <desc>Created with Sketch.</desc>
    <defs>
        <path d="M27,24 L5,24 L5,2 L18.22,2 L20.22,0 L5,0 C3.8954305,0 3,0.8954305 3,2 L3,24 C3,25.1045695 3.8954305,26 5,26 L27,26 C28.1045695,26 29,25.1045695 29,24 L29,9 L27,11 L27,24 Z M32.53,-0.16 L29.16,-3.53 C28.8579406,-3.83288785 28.4477627,-4.0031183 28.02,-4.0031183 C27.5922373,-4.0031183 27.1820594,-3.83288785 26.88,-3.53 L13.17,10.26 L12.06,15.07 C11.9642468,15.542117 12.0849313,16.0323049 12.3889249,16.4060041 C12.6929185,16.7797032 13.1482764,16.9976439 13.63,17 C13.7529616,17.0135417 13.8770384,17.0135417 14,17 L18.85,15.93 L32.53,2.12 C32.8328879,1.81794065 33.0031183,1.40776267 33.0031183,0.98 C33.0031183,0.552237328 32.8328879,0.14205935 32.53,-0.16 Z M17.81,14.08 L14.15,14.89 L15,11.26 L25.32,0.87 L28.14,3.69 L17.81,14.08 Z M29.27,2.56 L26.45,-0.26 L28,-1.84 L30.84,1 L29.27,2.56 Z" id="path-1"></path>
    </defs>
    <g id="icone/contact" stroke="none" stroke-width="1" fill="none" fill-rule="evenodd">
        <mask id="mask-2" fill="white">
            <use xlink:href="#path-1"></use>
        </mask>
        <use id="Mask" fill="#684971" xlink:href="#path-1"></use>
    </g>
</svg>