<?xml version="1.0" encoding="UTF-8"?>
<svg width="33px" height="25px" viewBox="0 0 33 25" version="1.1" xmlns="http://www.w3.org/2000/svg" xmlns:xlink="http://www.w3.org/1999/xlink">
    <!-- Generator: Sketch 59.1 (86144) - https://sketch.com -->
    <title>icone/contact</title>
    <desc>Created with Sketch.</desc>
    <defs>
        <path d="M31.88,2.40053399 L17.32,16.900534 C16.5399251,17.6759812 15.2800749,17.6759812 14.5,16.900534 L0.07,2.51053399 C0.0256393788,2.67357458 0.00211868547,2.84157953 0,3.01053399 L0,23.010534 C0,24.1151035 0.8954305,25.010534 2,25.010534 L30,25.010534 C31.1045695,25.010534 32,24.1151035 32,23.010534 L32,3.01053399 C31.9920404,2.80218874 31.9515513,2.59636941 31.88,2.40053399 L31.88,2.40053399 Z M3.37,23.010534 L1.98,23.010534 L1.98,21.580534 L9.25,14.370534 L10.66,15.780534 L3.37,23.010534 Z M22.7,14.370534 L29.97,21.580534 L29.98,23.010534 L28.58,23.010534 L21.29,15.780534 L22.7,14.370534 Z M30.2634135,1.00117044 L30.4,1.01053399 L15.91,15.480534 L1.46,1.09053399 C1.63227685,1.04020738 1.81054406,1.01329913 1.99,1.01053399 L1.99,1.01053399 L29.99,1.01053399 C30.1263058,0.99648867 30.2636942,0.99648867 30.4,1.01053399 Z" id="path-1"></path>
    </defs>
    <g id="icone/contact" stroke="none" stroke-width="1" fill="none" fill-rule="evenodd">
        <mask id="mask-2" fill="white">
            <use xlink:href="#path-1"></use>
        </mask>
        <use id="Mask" fill="#684971" xlink:href="#path-1"></use>
    </g>
</svg>