<?xml version="1.0" encoding="UTF-8"?>
<svg width="26px" height="25px" viewBox="0 0 26 25" version="1.1" xmlns="http://www.w3.org/2000/svg" xmlns:xlink="http://www.w3.org/1999/xlink">
    <!-- Generator: Sketch 55 (78076) - https://sketchapp.com -->
    <title>icone/eclair</title>
    <desc>Created with Sketch.</desc>
    <defs>
        <path d="M23.1777778,0.781111111 C23.1161228,0.643205877 22.9788358,0.554732012 22.8277778,0.555555556 L11.9933333,0.555555556 C11.8611142,0.555775821 11.7380649,0.623159944 11.6666667,0.734444444 L3.33666667,13.9566667 C3.25490152,14.074053 3.24576064,14.2273424 3.3129961,14.3536139 C3.38023156,14.4798854 3.51251801,14.5578693 3.65555556,14.5555556 L9.62111111,14.5555556 L4.35555556,24.8611111 C4.29410638,24.985685 4.30088475,25.1330772 4.37350833,25.2514853 C4.44613192,25.3698933 4.57443853,25.4427482 4.71333333,25.4444444 L7.04666667,25.4444444 C7.15580521,25.445183 7.26023103,25.4000259 7.33444444,25.32 L21,10.55 C21.1109848,10.4368817 21.1422297,10.2677335 21.0789803,10.1224308 C21.0157309,9.9771281 20.8706398,9.88473793 20.7122222,9.88888889 L15.47,9.88888889 L23.1155556,1.19333333 C23.2162729,1.08045388 23.2406902,0.91868941 23.1777778,0.781111111 Z" id="path-1"></path>
    </defs>
    <g id="icone/eclair" stroke="none" stroke-width="1" fill="none" fill-rule="evenodd">
        <mask id="mask-2" fill="white">
            <use xlink:href="#path-1"></use>
        </mask>
        <use id="Mask" fill="#000000" fill-rule="nonzero" xlink:href="#path-1"></use>
    </g>
</svg>