<?xml version="1.0" encoding="UTF-8"?>
<svg width="36px" height="36px" viewBox="0 0 36 36" version="1.1" xmlns="http://www.w3.org/2000/svg" xmlns:xlink="http://www.w3.org/1999/xlink">
    <!-- Generator: Sketch 55 (78076) - https://sketchapp.com -->
    <title>icone/ext</title>
    <desc>Created with Sketch.</desc>
    <defs>
        <path d="M28,32 L6,32 C4.8954305,32 4,31.1045695 4,30 L4,8 C4,6.8954305 4.8954305,6 6,6 L16,6 L16,8 L6,8 L6,30 L28,30 L28,20 L30,20 L30,30 C30,31.1045695 29.1045695,32 28,32 Z M19,2 L34,2 L34,17 C34,17.5522847 33.5522847,18 33,18 C32.4477153,18 32,17.5522847 32,17 L32,5.41 L18.15,19.26 C17.9056101,19.5453762 17.5218816,19.6696819 17.156581,19.5818101 C16.7912805,19.4939383 16.5060617,19.2087195 16.4181899,18.843419 C16.3303181,18.4781184 16.4546238,18.0943899 16.74,17.85 L30.59,4 L19,4 C18.4477153,4 18,3.55228475 18,3 C18,2.44771525 18.4477153,2 19,2 Z" id="path-1"></path>
    </defs>
    <g id="icone/ext" stroke="none" stroke-width="1" fill="none" fill-rule="evenodd">
        <mask id="mask-2" fill="white">
            <use xlink:href="#path-1"></use>
        </mask>
        <use id="Mask" fill="#FFFFFF" xlink:href="#path-1"></use>
    </g>
</svg>