<?xml version="1.0" encoding="UTF-8"?>
<svg width="33px" height="28px" viewBox="0 0 33 28" version="1.1" xmlns="http://www.w3.org/2000/svg" xmlns:xlink="http://www.w3.org/1999/xlink">
    <!-- Generator: Sketch 55 (78076) - https://sketchapp.com -->
    <title>icone/eye_blind</title>
    <desc>Created with Sketch.</desc>
    <defs>
        <path d="M2.87,1.78 L7.33,6.24 C4.51091908,8.05511223 2.20690139,10.5657683 0.64,13.53 L0.38,14 L0.64,14.48 C4.01,20.71 9.92,24.48 16.46,24.48 C19.0126582,24.4794845 21.5321553,23.9017436 23.83,22.79 L28.83,27.79 L30.58,26.29 L4.58,0.29 L2.87,1.78 Z M11.17,10.08 C9.23828747,12.8042364 9.55264798,16.5244341 11.914107,18.885893 C14.2755659,21.247352 17.9957636,21.5617125 20.72,19.63 L22.32,21.23 C20.4677809,22.0217359 18.4743389,22.4299493 16.46,22.43 C10.83,22.43 5.71,19.29 2.66,14 C4.12370762,11.4082183 6.23172427,9.2382012 8.78,7.7 L11.17,10.08 Z M32.29,13.53 L32.58,14 L32.32,14.48 C31.0653647,16.790192 29.3660743,18.8293405 27.32,20.48 L25.9,19.06 C27.6679436,17.6535847 29.151156,15.9226046 30.27,13.96 C27.22,8.67 22.1,5.53 16.47,5.53 C15.2451997,5.53565308 14.0258515,5.69353012 12.84,6 L11.23,4.38 C12.9206626,3.82108598 14.6893519,3.53418027 16.47,3.53 C23.01,3.53 28.92,7.3 32.29,13.53 Z M16.37,7.17 C20.1469885,7.16996388 23.2134826,10.2230476 23.23,14 C23.2328738,14.8194115 23.0871851,15.6325574 22.8,16.4 L14,7.6 C14.7580606,7.31656956 15.5606868,7.17094539 16.37,7.17 Z" id="path-1"></path>
    </defs>
    <g id="icone/eye_blind" stroke="none" stroke-width="1" fill="none" fill-rule="evenodd">
        <g id="color">
            <mask id="mask-2" fill="white">
                <use xlink:href="#path-1"></use>
            </mask>
            <use id="Mask" fill="#684971" xlink:href="#path-1"></use>
        </g>
    </g>
</svg>