<?xml version="1.0" encoding="UTF-8"?>
<svg width="33px" height="33px" viewBox="0 0 33 33" version="1.1" xmlns="http://www.w3.org/2000/svg" xmlns:xlink="http://www.w3.org/1999/xlink">
    <!-- Generator: Sketch 55 (78076) - https://sketchapp.com -->
    <title>icone/facebook</title>
    <desc>Created with Sketch.</desc>
    <g id="icone/facebook" stroke="none" stroke-width="1" fill="none" fill-rule="evenodd">
        <g id="facebook-official" transform="translate(0.000000, 0.000000)" fill="#684971">
            <g id="Page-1">
                <g id="facebook-official">
                    <path d="M30.2386133,0 C31.2180859,0 32.01,0.791914061 32.01,1.77138672 L32.01,30.2386133 C32.01,31.2180859 31.2180859,32.01 30.2386133,32.01 L22.0902344,32.01 L22.0902344,19.610293 L26.2373633,19.610293 L26.8625586,14.7754492 L22.0902344,14.7754492 L22.0902344,11.6911523 C22.0902344,10.2948828 22.4653516,9.35708986 24.4868164,9.35708986 L27.0292773,9.33625002 L27.0292773,5.02240235 C26.5916406,4.9598828 25.070332,4.83484377 23.3197852,4.83484377 C19.6311328,4.83484377 17.0886719,7.08554689 17.0886719,11.2118359 L17.0886719,14.7754492 L12.9207031,14.7754492 L12.9207031,19.610293 L17.0886719,19.610293 L17.0886719,32.01 L1.77138672,32.01 C0.791914061,32.01 0,31.2180859 0,30.2386133 L0,1.77138672 C0,0.791914061 0.791914061,0 1.77138672,0 L30.2386133,0 Z" id="Path"></path>
                </g>
            </g>
        </g>
    </g>
</svg>