<?xml version="1.0" encoding="UTF-8"?>
<svg width="19px" height="24px" viewBox="0 0 19 24" version="1.1" xmlns="http://www.w3.org/2000/svg" xmlns:xlink="http://www.w3.org/1999/xlink">
    <!-- Generator: Sketch 59.1 (86144) - https://sketch.com -->
    <title>icone/langue</title>
    <desc>Created with Sketch.</desc>
    <g id="Symbols" stroke="none" stroke-width="1" fill="none" fill-rule="evenodd">
        <g id="Header_mobile" transform="translate(-228.000000, -10.000000)" fill="#FFFFFF" fill-rule="nonzero">
            <g id="icone_langue" transform="translate(210.000000, 9.444444)">
                <g id="icone/langue" transform="translate(15.000000, 0.000000)">
                    <path d="M11.0898438,14.8359375 C11.0651042,14.9257813 10.4589844,14.6305804 10.2981771,14.5664063 C10.1373698,14.4893973 9.40755209,14.0658482 9.22200521,13.9375 C9.03645832,13.8091518 8.33138021,13.2059152 8.24479168,13.1674107 C7.79947918,13.8733259 7.23046876,14.7075893 6.58723959,15.4905134 C6.36458332,15.7600446 5.69661458,16.6328125 5.28841146,16.9023438 C5.2265625,16.9408482 4.86783854,16.9793527 4.81835938,16.953683 C5.01627604,16.7996652 5.58528646,16.0680804 5.83268229,15.7728795 C6.14192709,15.4006696 7.61393229,13.2700893 7.86132812,12.7823661 C8.12109376,12.2946429 8.90039062,10.6774554 8.9375,10.5234375 C8.81380209,10.5106027 7.83658853,10.8571429 7.57682291,10.9469866 C7.32942709,11.0239955 6.64908853,11.1908482 6.59960938,11.2293527 C6.55013021,11.280692 6.58723959,11.4347098 6.5625,11.4860491 C6.53776041,11.5373884 6.31510418,11.6529018 6.17903647,11.6785714 C6.05533853,11.7170759 5.77083333,11.7299107 5.59765625,11.6785714 C5.43684896,11.640067 5.28841146,11.4732143 5.25130208,11.4090402 C5.25130208,11.4090402 5.20182292,11.3320313 5.18945312,11.1138393 C5.33789062,11.0625 5.58528646,11.0496652 5.85742188,10.9726563 C6.12955729,10.8956473 6.79752603,10.6902902 7.15625,10.561942 C7.51497397,10.4335938 8.20768229,10.1640625 8.41796876,10.1127232 C8.640625,10.0742188 9.19726562,9.68917411 9.49414062,9.58649553 C9.79101562,9.48381697 10.0013021,9.35546876 10.0136719,9.41964287 C10.0260417,9.48381697 10.0136719,9.76618303 10.0013021,9.84319197 C9.98893229,9.90736608 9.39518229,11.1138393 9.30859376,11.3063616 C9.25911459,11.4090402 8.91276041,12.0892857 8.35611979,12.9877232 C8.55403647,13.077567 8.97460938,13.2572545 9.14778647,13.3470982 C9.35807291,13.4497768 10.8300781,14.0915179 10.9042969,14.1171875 C10.9785156,14.1428571 11.1145833,14.7332589 11.0898438,14.8359375 Z M8.55403647,8.59821429 C8.59114582,8.81640626 8.52929688,8.90625 8.50455729,8.95758929 C8.38085938,9.20145089 8.07161459,9.36830358 7.88606771,9.4453125 C7.70052082,9.52232142 7.39127603,9.59933037 7.14388021,9.59933037 C7.03255209,9.58649553 6.80989582,9.54799108 6.53776041,9.265625 C6.38932291,9.09877232 6.27799479,8.64955358 6.32747397,8.70089287 C6.37695312,8.75223213 6.73567709,8.80357142 6.89648438,8.76506697 C7.05729168,8.7265625 7.44075521,8.61104911 7.61393229,8.55970982 C7.79947918,8.49553571 8.17057291,8.39285713 8.29427082,8.38002232 C8.41796874,8.38002232 8.51692709,8.43136161 8.55403647,8.59821429 Z M17.188151,10.2539063 L17.9674479,13.1674107 L16.2480469,12.6283482 L17.188151,10.2539063 Z M3.48242188,20.5217634 L12.0670573,17.5440848 L12.0670573,4.29854911 L3.48242188,7.2890625 L3.48242188,20.5217634 Z M18.8333333,16.453125 L20.0950521,16.8510045 L17.8561198,8.41852679 L16.6191406,8.02064732 L13.9472656,14.9001116 L15.2089844,15.2979911 L15.765625,13.8861607 L18.375651,14.7204241 L18.8333333,16.453125 Z M12.6113281,4.10602679 L19.6992188,6.46763392 L19.6992188,1.59040179 L12.6113281,4.10602679 Z M16.4583333,21.0864955 L18.4127604,21.2533482 L17.7447917,23.3069196 L17.25,22.4598214 C16.2480469,23.1272321 15.0110677,23.640625 13.8359375,23.8459821 C13.4772135,23.9229911 13.0690104,24 12.7102865,24 L11.671224,24 C10.360026,24 7.97265624,23.1914063 6.93359374,22.4084821 C6.859375,22.344308 6.83463541,22.2929688 6.83463541,22.203125 C6.83463541,22.061942 6.93359374,21.9592634 7.05729168,21.9592634 C7.16861979,21.9592634 7.75,22.3314732 7.91080729,22.4084821 C9.02408853,22.9860491 10.5826823,23.5122768 11.8320312,23.5122768 C13.3782552,23.5122768 14.4296875,23.3069196 15.8398437,22.6780134 C16.2480469,22.4854911 16.6067708,22.2416295 16.9902344,22.0234375 L16.4583333,21.0864955 Z M22,7.23772321 L22,21.0864955 C12.438151,17.9291295 12.4257812,17.9291295 12.4257812,17.9291295 C12.2278646,18.0189732 3.35872396,21.125 3.23502604,21.125 C3.13606771,21.125 3.04947917,21.0608259 3.01236979,20.9581473 C3.01236979,20.9453125 3,20.9324777 3,20.9196429 L3,7.08370537 C3.01236979,7.04520089 3.02473958,6.98102679 3.04947917,6.95535713 C3.12369792,6.86551339 3.22265625,6.83984376 3.296875,6.81417411 C3.33398438,6.80133929 4.08854167,6.54464287 5.13997396,6.17243303 L5.13997396,1.24386161 L12.0423177,3.78515625 C12.1289062,3.75948661 19.8229167,1 19.9342448,1 C20.0703125,1 20.1816406,1.10267857 20.1816406,1.26953125 L20.1816406,6.63448661 L22,7.23772321 Z" id="Shape"></path>
                </g>
            </g>
        </g>
    </g>
</svg>