<?xml version="1.0" encoding="UTF-8"?>
<svg width="24px" height="24px" viewBox="0 0 24 24" version="1.1" xmlns="http://www.w3.org/2000/svg" xmlns:xlink="http://www.w3.org/1999/xlink">
    <!-- Generator: Sketch 55 (78076) - https://sketchapp.com -->
    <title>icone/langue</title>
    <desc>Created with Sketch.</desc>
    <g id="icone/langue" stroke="none" stroke-width="1" fill="none" fill-rule="evenodd">
        <path d="M17.7233333,11.5555556 C17.7203153,10.5844265 17.6162362,9.61624836 17.4127778,8.66666667 L20.0127778,8.66666667 C19.8788769,8.27057382 19.7171786,7.88442866 19.5288889,7.51111111 L17.1094444,7.51111111 C16.6546259,5.99159742 15.9491774,4.5587315 15.0222222,3.27166667 C14.4299878,3.02264568 13.8124866,2.83860612 13.1805556,2.72277778 C14.4504636,4.08722848 15.4090194,5.71110569 15.99,7.48222222 L12.0972222,7.48222222 L12.0972222,2.6 C11.9166667,2.6 11.7288889,2.6 11.5411111,2.6 C11.3533333,2.6 11.1872222,2.6 11.0138889,2.6 L11.0138889,7.48944444 L7.12111111,7.48944444 C7.70327527,5.7151213 8.66437635,4.08864254 9.93777778,2.72277778 C9.30855728,2.83667378 8.69349974,3.01828526 8.10333333,3.26444444 C7.17271767,4.54611551 6.46241463,5.97404432 6.00166667,7.48944444 L3.56777778,7.48944444 C3.37607633,7.86957661 3.21194963,8.26299796 3.07666667,8.66666667 L5.69833333,8.66666667 C5.49487493,9.61624836 5.39079578,10.5844265 5.38777778,11.5555556 C5.38977393,12.6177847 5.51090141,13.6764389 5.74888889,14.7116667 L3.19222222,14.7116667 C3.34163546,15.1164952 3.52025347,15.5099376 3.72666667,15.8888889 L6.05944444,15.8888889 C6.501596,17.272516 7.15708382,18.5786181 8.00222222,19.76 C8.60742492,20.0195767 9.23965537,20.2109415 9.88722222,20.3305556 C8.70849839,19.0448302 7.8019922,17.5339866 7.22222222,15.8888889 L11.0211111,15.8888889 L11.0211111,20.4677778 C11.1944444,20.4677778 11.375,20.4677778 11.5483333,20.4677778 C11.7216667,20.4677778 11.9166667,20.4677778 12.1044444,20.4677778 L12.1044444,15.8888889 L15.8888889,15.8888889 C15.3071503,17.5346689 14.3981399,19.0455915 13.2166667,20.3305556 C13.8672709,20.2068162 14.5019684,20.0105929 15.1088889,19.7455556 C15.9526938,18.568607 16.6081341,17.2674728 17.0516667,15.8888889 L19.3627778,15.8888889 C19.5682462,15.5169373 19.74685,15.130767 19.8972222,14.7333333 L17.3333333,14.7333333 C17.5826616,13.692154 17.7134922,12.6261265 17.7233333,11.5555556 Z M11.0138889,14.7116667 L6.86833333,14.7116667 C6.35986787,12.7239975 6.33757262,10.6431073 6.80333333,8.645 L11.0138889,8.645 L11.0138889,14.7116667 Z M16.2427778,14.7116667 L12.0972222,14.7116667 L12.0972222,8.66666667 L16.3077778,8.66666667 C16.5152483,9.61547531 16.6169798,10.5843463 16.6111111,11.5555556 C16.6169841,12.6186483 16.4932948,13.6784959 16.2427778,14.7116667 Z M11.5555556,0 C5.17359845,-3.20731096e-16 1.01893802e-13,5.17359845 1.0125234e-13,11.5555556 C1.00450512e-13,17.9375127 5.17359845,23.1111111 11.5555556,23.1111111 C17.9375127,23.1111111 23.1111111,17.9375127 23.1111111,11.5555556 C23.1111111,8.49083167 21.8936543,5.5516309 19.7265672,3.38454386 C17.5594802,1.21745682 14.6202794,3.20731096e-16 11.5555556,0 Z M11.5555556,21.6666667 C5.97134309,21.6666667 1.44444444,17.139768 1.44444444,11.5555556 C1.44444444,5.97134309 5.97134309,1.44444444 11.5555556,1.44444444 C17.139768,1.44444444 21.6666667,5.97134309 21.6666667,11.5555556 C21.6666667,14.237189 20.6013919,16.8089896 18.7051908,18.7051908 C16.8089896,20.6013919 14.237189,21.6666667 11.5555556,21.6666667 Z" id="Mask" fill="#FFFFFF" fill-rule="nonzero"></path>
    </g>
</svg>