<?xml version="1.0" encoding="UTF-8"?>
<svg xmlns="http://www.w3.org/2000/svg" xmlns:xlink="http://www.w3.org/1999/xlink" width="122pt" height="122pt" viewBox="0 0 122 122" version="1.1">
<g id="surface1">
<path style=" stroke:none;fill-rule:nonzero;fill:rgb(40.784314%,28.627451%,44.313725%);fill-opacity:1;" d="M 117.296875 61.109375 C 117.296875 30.363281 92.140625 5.4375 61.109375 5.4375 C 30.074219 5.4375 4.917969 30.363281 4.917969 61.109375 C 4.917969 91.855469 30.074219 116.777344 61.109375 116.777344 C 92.140625 116.777344 117.296875 91.855469 117.296875 61.109375 Z M 117.296875 61.109375 "/>
<path style=" stroke:none;fill-rule:nonzero;fill:rgb(100%,100%,100%);fill-opacity:1;" d="M 51.230469 59.078125 C 41.4375 55.628906 36.542969 50.410156 36.542969 43.417969 C 36.542969 37.902344 39.140625 33.492188 44.332031 30.195312 C 49.527344 26.894531 55.976562 25.246094 63.679688 25.246094 C 70.6875 25.246094 76.253906 26.390625 80.378906 28.679688 C 84.503906 30.96875 86.570312 33.714844 86.570312 36.917969 C 86.570312 38.589844 85.921875 40.054688 84.628906 41.3125 C 83.335938 42.566406 81.847656 43.195312 80.15625 43.195312 C 77.375 43.195312 75.085938 41.273438 73.296875 37.433594 C 70.8125 32.113281 67.085938 29.457031 62.113281 29.457031 C 58.1875 29.457031 54.957031 30.734375 52.421875 33.296875 C 49.886719 35.859375 48.621094 39.429688 48.621094 44.007812 C 48.621094 53.019531 53.316406 57.527344 62.710938 57.527344 C 63.703125 57.527344 64.847656 57.425781 66.140625 57.230469 C 68.378906 56.933594 70.117188 56.785156 71.359375 56.785156 C 74.390625 56.785156 75.90625 57.648438 75.90625 59.371094 C 75.90625 61.292969 74.367188 62.253906 71.285156 62.253906 C 70.191406 62.253906 68.550781 62.082031 66.363281 61.734375 C 64.722656 61.441406 63.457031 61.292969 62.5625 61.292969 C 52.621094 61.292969 47.652344 66.316406 47.652344 76.363281 C 47.652344 81.238281 48.96875 85.164062 51.601562 88.144531 C 54.238281 91.121094 57.914062 92.613281 62.636719 92.613281 C 68.550781 92.613281 72.476562 89.585938 74.417969 83.527344 C 75.410156 80.324219 76.515625 78.109375 77.734375 76.878906 C 78.953125 75.648438 80.578125 75.03125 82.617188 75.03125 C 84.308594 75.03125 85.835938 75.636719 87.203125 76.84375 C 88.570312 78.046875 89.253906 79.585938 89.253906 81.457031 C 89.253906 85.941406 86.71875 89.644531 81.648438 92.574219 C 76.578125 95.503906 70.441406 96.972656 63.234375 96.972656 C 55.332031 96.972656 48.308594 95.097656 42.171875 91.355469 C 36.03125 87.613281 32.964844 82.617188 32.964844 76.363281 C 32.964844 68.53125 39.050781 62.769531 51.230469 59.078125 Z M 51.230469 59.078125 "/>
</g>
</svg>
