<?xml version="1.0" encoding="UTF-8"?>
<svg width="33px" height="33px" viewBox="0 0 33 33" version="1.1" xmlns="http://www.w3.org/2000/svg" xmlns:xlink="http://www.w3.org/1999/xlink">
    <!-- Generator: Sketch 55 (78076) - https://sketchapp.com -->
    <title>icone/mastodon</title>
    <desc>Created with Sketch.</desc>
    <g id="icone/mastodon" stroke="none" stroke-width="1" fill="none" fill-rule="evenodd">
        <g id="mastodon" transform="translate(2.000000, 0.000000)" fill="#684971">
            <g id="Page-1">
                <g id="mastodon">
                    <path d="M28.7536107,19.1896781 C28.3217429,21.4476978 24.8856787,23.918886 20.9392878,24.3978057 C18.8814555,24.6473447 16.8553166,24.8767059 14.6947917,24.7759923 C11.161505,24.6114796 8.37344337,23.918886 8.37344337,23.918886 C8.37344337,24.2684583 8.39467429,24.601313 8.43709793,24.9126098 C8.89643204,28.4565027 11.8947182,28.6687771 14.7348627,28.7677607 C17.6014597,28.8674247 20.1539344,28.0494686 20.1539344,28.0494686 L20.2716992,30.6832839 C20.2716992,30.6832839 18.2666765,31.7775659 14.6947725,31.9788183 C12.7251921,32.0888433 10.2795797,31.9284712 7.43113413,31.1622036 C1.253372,29.5003599 0.195459375,22.8075948 0.0283470523,16.0169154 C-0.0212300497,14.0006785 0.00927746484,12.0994819 0.00937309971,10.5093877 C0.00956436937,3.56545079 4.48602093,1.53004701 4.48602093,1.53004701 C6.74321358,0.476470363 10.6164438,0.0334351525 14.6430723,0 L14.7420162,0 C18.7686255,0.0334545915 22.6443614,0.476470363 24.9014393,1.53004701 C24.9014393,1.53004701 29.377915,3.56543135 29.377915,10.5093877 C29.377915,10.5093877 29.4340526,15.6326638 28.7536107,19.1896781 Z M24.0975519,11.0480824 C24.0975519,9.32967108 23.6822863,7.95047103 22.8024649,6.9538702 C21.9105744,5.94358431 20.7427391,5.42570881 19.29324,5.42570881 C17.615824,5.42570881 16.3456977,6.08086283 15.506062,7.39140419 L14.6895126,8.7822871 L13.8731162,7.39142362 C13.0333084,6.08084341 11.763163,5.42566992 10.0859191,5.42566992 C8.63624792,5.42566992 7.46841258,5.94356488 6.57669422,6.95385078 C5.71196398,7.9641561 5.28145417,9.32967108 5.28145417,11.0480629 L5.28145417,19.4560707 L8.55903235,19.4560319 L8.55903235,11.2952304 C8.55903235,9.57491403 9.27120587,8.70177055 10.6957633,8.70177055 C12.2708692,8.70177055 13.0604304,9.73754106 13.0604304,11.7856969 L13.0604304,16.2525555 L16.3187095,16.2525555 L16.3187095,11.7857163 C16.3187095,9.73756048 17.1081177,8.70179002 18.6831854,8.70179002 C20.1077237,8.70179002 20.8199546,9.57493346 20.8199546,11.2952498 L20.8199546,19.4560707 L24.0975519,19.4560707 L24.0975137,11.0481018 L24.0975519,11.0480824 Z" id="Shape"></path>
                </g>
            </g>
        </g>
    </g>
</svg>