<?xml version="1.0" encoding="UTF-8"?>
<svg width="26px" height="18px" viewBox="0 0 26 18" version="1.1" xmlns="http://www.w3.org/2000/svg" xmlns:xlink="http://www.w3.org/1999/xlink">
    <!-- Generator: Sketch 55 (78076) - https://sketchapp.com -->
    <title>icone/menu</title>
    <desc>Created with Sketch.</desc>
    <g id="icone/menu" stroke="none" stroke-width="1" fill="none" fill-rule="evenodd">
        <path d="M25.1333333,1.63636364 L0.866666667,1.63636364 C0.388019883,1.63636364 0,1.27005116 0,0.818181818 C0,0.366312477 0.388019883,0 0.866666667,0 L25.1333333,0 C25.6119801,0 26,0.366312477 26,0.818181818 C26,1.27005116 25.6119801,1.63636364 25.1333333,1.63636364 Z M25.1333333,9.81818182 L0.866666667,9.81818182 C0.388019883,9.81818182 0,9.45186934 0,9 C0,8.54813066 0.388019883,8.18181818 0.866666667,8.18181818 L25.1333333,8.18181818 C25.6119801,8.18181818 26,8.54813066 26,9 C26,9.45186934 25.6119801,9.81818182 25.1333333,9.81818182 Z M25.1333333,18 L0.866666667,18 C0.388019883,18 0,17.6336875 0,17.1818182 C0,16.7299488 0.388019883,16.3636364 0.866666667,16.3636364 L25.1333333,16.3636364 C25.6119801,16.3636364 26,16.7299488 26,17.1818182 C26,17.6336875 25.6119801,18 25.1333333,18 Z" id="Mask" fill="#FFFFFF" fill-rule="nonzero"></path>
    </g>
</svg>