<?xml version="1.0" encoding="UTF-8"?>
<svg width="168px" height="168px" viewBox="0 0 168 168" version="1.1" xmlns="http://www.w3.org/2000/svg" xmlns:xlink="http://www.w3.org/1999/xlink">
    <!-- Generator: Sketch 55 (78076) - https://sketchapp.com -->
    <title>illu/permission</title>
    <desc>Created with Sketch.</desc>
    <g id="illu/permission" stroke="none" stroke-width="1" fill="none" fill-rule="evenodd">
        <circle id="Oval" fill-opacity="0.2" fill="#684971" cx="84" cy="84" r="70"></circle>
        <rect id="Rectangle" fill="#FFFFFF" x="63" y="51" width="42" height="66" rx="3"></rect>
        <g transform="translate(14.000000, 14.000000)" id="Group-2">
            <g transform="translate(44.000000, 13.000000)">
                <path d="M46.6786787,18.3636364 L5.83483483,18.3636364 C2.61234454,18.3636364 0,21.0063192 0,24.2662338 L0,95.0974026 C0,98.3573171 2.61234454,101 5.83483483,101 L46.6786787,101 C49.901169,101 52.5135135,98.3573171 52.5135135,95.0974026 L52.5135135,24.2662338 C52.5135135,21.0063192 49.901169,18.3636364 46.6786787,18.3636364 Z M28.972973,95.4909091 L23.5405405,95.4909091 L23.5405405,89.9818182 L28.972973,89.9818182 L28.972973,95.4909091 Z M5.43243243,82.6363636 L5.43243243,23.8727273 L47.0810811,23.8727273 L47.0810811,82.6363636 L5.43243243,82.6363636 Z" id="Mask" fill="#684971"></path>
                <path d="M44.8710449,-0.999999641 L44.8718788,-1 C57.1740302,-1.00016155 67.1588029,9.07397874 67.2213514,21.5405455 C67.2213514,27.5733148 65.1410879,33.0598898 61.1979282,39.4323848 C60.5327284,40.5074066 60.0087338,41.3137827 58.8563667,43.0575063 L58.2113181,44.0476994 C54.7327567,49.1592616 51.001623,54.0892743 47.0311482,58.8201111 L44.89,61.3628908 L44.125068,60.4544747 L42.7478739,58.8189479 C38.7778918,54.089718 35.0466953,49.1596223 31.5622203,44.0380851 L30.9286664,43.0835223 C25.0037034,34.1645486 22.5405405,28.8128571 22.5405531,21.5355276 C22.6030472,9.08147112 32.5762976,-0.989585802 44.8710449,-0.999999641 Z" id="Mask" stroke="#FFFFFF" stroke-width="2" fill="#FFFFFF"></path>
                <path d="M44.8718919,27.0212727 C40.5861359,27.0212727 37.1175676,23.5037585 37.1175676,19.1716364 C37.1175676,14.8395142 40.5861359,11.322 44.8718919,11.322 C49.1576479,11.322 52.6262162,14.8395142 52.6262162,19.1716364 C52.6262162,23.5037585 49.1576479,27.0212727 44.8718919,27.0212727 Z M44.8710449,-0.999999641 L44.8718788,-1 C57.1740302,-1.00016155 67.1588029,9.07397874 67.2213514,21.5405455 C67.2213514,27.5733148 65.1410879,33.0598898 61.1979282,39.4323848 C60.5327284,40.5074066 60.0087338,41.3137827 58.8563667,43.0575063 L58.2113181,44.0476994 C54.7327567,49.1592616 51.001623,54.0892743 47.0311482,58.8201111 L44.89,61.3628908 L44.125068,60.4544747 L42.7478739,58.8189479 C38.7778918,54.089718 35.0466953,49.1596223 31.5622203,44.0380851 L30.9286664,43.0835223 C25.0037034,34.1645486 22.5405405,28.8128571 22.5405531,21.5355276 C22.6030472,9.08147112 32.5762976,-0.989585802 44.8710449,-0.999999641 Z M44.8718919,30.2181818 C47.7541985,30.2181818 50.5193344,29.0566626 52.5595126,26.9876949 C54.6023671,24.9160132 55.7508108,22.1043 55.7508108,19.1716364 C55.7508108,13.0676855 50.876992,8.12509091 44.8718919,8.12509091 C38.8667918,8.12509091 33.992973,13.0676855 33.992973,19.1716364 C33.992973,25.2755873 38.8667918,30.2181818 44.8718919,30.2181818 Z" id="Mask" stroke="#FFFFFF" stroke-width="2" fill="#684971"></path>
            </g>
        </g>
    </g>
</svg>