<?xml version="1.0" encoding="UTF-8"?>
<svg width="23px" height="23px" viewBox="0 0 23 23" version="1.1" xmlns="http://www.w3.org/2000/svg" xmlns:xlink="http://www.w3.org/1999/xlink">
    <!-- Generator: Sketch 55 (78076) - https://sketchapp.com -->
    <title>icone/search</title>
    <desc>Created with Sketch.</desc>
    <g id="icone/search" stroke="none" stroke-width="1" fill="none" fill-rule="evenodd">
        <path d="M15.9230769,9.73076924 C15.9230769,6.31670674 13.1448317,3.53846153 9.73076924,3.53846153 C6.31670674,3.53846153 3.53846153,6.31670674 3.53846153,9.73076924 C3.53846153,13.1448317 6.31670674,15.9230769 9.73076924,15.9230769 C13.1448317,15.9230769 15.9230769,13.1448317 15.9230769,9.73076924 Z M23,21.2307692 C23,22.1983173 22.1983173,23 21.2307692,23 C20.7608173,23 20.3046875,22.8064904 19.9867789,22.4747596 L15.2457933,17.7475961 C13.6286058,18.8671875 11.6935096,19.4615385 9.73076924,19.4615385 C4.35396635,19.4615385 0,15.1075721 0,9.73076924 C0,4.35396635 4.35396635,0 9.73076924,0 C15.1075721,0 19.4615385,4.35396635 19.4615385,9.73076924 C19.4615385,11.6935096 18.8671875,13.6286058 17.7475961,15.2457933 L22.4885817,19.9867789 C22.8064904,20.3046875 23,20.7608173 23,21.2307692 Z" id="Shape" fill="#684971"></path>
    </g>
</svg>