<?xml version="1.0" encoding="UTF-8"?>
<svg width="168px" height="168px" viewBox="0 0 168 168" version="1.1" xmlns="http://www.w3.org/2000/svg" xmlns:xlink="http://www.w3.org/1999/xlink">
    <!-- Generator: Sketch 55 (78076) - https://sketchapp.com -->
    <title>illu/pisteur</title>
    <desc>Created with Sketch.</desc>
    <g id="illu/pisteur" stroke="none" stroke-width="1" fill="none" fill-rule="evenodd">
        <circle id="Oval" fill-opacity="0.2" fill="#684971" cx="84" cy="84" r="70"></circle>
        <rect id="Rectangle" fill="#FFFFFF" x="63" y="51" width="42" height="66" rx="3"></rect>
        <g transform="translate(14.000000, 14.000000)" id="Group">
            <g transform="translate(44.000000, 30.000000)">
                <path d="M46.5416361,0 L5.81770452,0 C2.60467503,0 0,2.59035252 0,5.78571429 L0,75.2142857 C0,78.4096475 2.60467503,81 5.81770452,81 L46.5416361,81 C49.7546656,81 52.3593407,78.4096475 52.3593407,75.2142857 L52.3593407,5.78571429 C52.3593407,2.59035252 49.7546656,0 46.5416361,0 Z M28.8879121,75.6 L23.4714286,75.6 L23.4714286,70.2 L28.8879121,70.2 L28.8879121,75.6 Z M5.41648352,63 L5.41648352,5.4 L46.9428571,5.4 L46.9428571,63 L5.41648352,63 Z" id="Mask" fill="#684971"></path>
                <path d="M59.7257582,43.6513433 C48.2965289,43.6513433 37.8011265,37.2963582 31.710951,26.5900299 C37.8011265,15.8837015 48.2965289,9.52871642 59.7257582,9.52871642 C71.1549876,9.52871642 81.5285865,15.9039403 87.7202649,26.5900299 C81.5285865,37.2963582 71.134687,43.6513433 59.7257582,43.6513433 Z" id="Mask" fill="#FFFFFF"></path>
                <path d="M66.4230867,21.2808665 C66.5953047,21.266533 66.8454618,21.2350885 67.3622354,21.1680539 C68.5678038,21.0116708 69.3179666,20.9740227 70.1753892,21.0981201 C72.5688709,21.4445359 74.2931168,23.0910103 75.1915878,26.3412826 C77.5409622,33.5603732 69.042563,41.5345672 60.3144752,41.5345672 C52.071643,41.5345672 45.3882739,34.871537 45.3882739,26.6507463 C45.3882739,19.3106986 52.7524032,12.9142772 60.1629756,11.7784681 L60.4375405,11.7363858 L60.6944751,11.8419388 C65.0524715,13.6322763 66.999019,16.6224741 66.4230867,21.2808665 Z M92.7179719,25.157724 L93.5099187,26.5849634 L93.2477817,27.0674359 L92.7224147,28.0343647 C85.7443261,41.0370539 73.405542,48.8002985 59.7257582,48.8002985 C46.1116837,48.8002985 33.7636508,40.9993336 26.73155,28.0388986 L25.9315536,26.5664767 L26.2240032,26.077073 L26.7701022,25.1651906 C33.734379,12.2144699 46.0980964,4.4 59.7257582,4.4 C73.3383703,4.4 85.6852127,12.199289 92.7179719,25.157724 Z M86.5597254,26.5904885 C80.4951294,16.479176 70.5784628,10.5287164 59.7257582,10.5287164 C48.8189044,10.5287164 38.8093766,16.5090584 32.8665018,26.5900299 C38.8093766,36.6710013 48.8189044,42.6513433 59.7257582,42.6513433 C70.5777141,42.6513433 80.5050364,36.7026928 86.5597254,26.5904885 Z" id="Mask" stroke="#FFFFFF" stroke-width="2" fill="#684971"></path>
            </g>
        </g>
    </g>
</svg>