<?xml version="1.0" encoding="UTF-8"?>
<svg width="33px" height="33px" viewBox="0 0 33 33" version="1.1" xmlns="http://www.w3.org/2000/svg" xmlns:xlink="http://www.w3.org/1999/xlink">
    <!-- Generator: Sketch 55 (78076) - https://sketchapp.com -->
    <title>icone/twitter</title>
    <desc>Created with Sketch.</desc>
    <g id="icone/twitter" stroke="none" stroke-width="1" fill="none" fill-rule="evenodd">
        <g id="twitter" transform="translate(0.000000, 3.000000)" fill="#684971">
            <g id="Page-1">
                <g id="twitter">
                    <path d="M32.01,3.14011141 C31.1163198,4.46226359 29.9992195,5.63980539 28.719632,6.59010222 C28.7399429,6.87932301 28.7399429,7.16854384 28.7399429,7.45776463 C28.7399429,16.2789986 22.1388959,26.4430435 10.0742132,26.4430435 C6.35731599,26.4430435 2.90446066,25.3481362 0,23.4475425 C0.528083755,23.5095183 1.0358566,23.530177 1.58425127,23.530177 C4.65119923,23.530177 7.47441623,22.476587 9.72892766,20.6792863 C6.84477791,20.6173105 4.42777919,18.6960581 3.59503172,16.0517538 C4.00125,16.1137296 4.40746828,16.1550469 4.83399748,16.1550469 C5.42301395,16.1550469 6.01203047,16.0724124 6.56042514,15.9278019 C3.5544099,15.3080431 1.29989848,12.6224216 1.29989848,9.37901698 L1.29989848,9.29638247 C2.17326777,9.79218954 3.18881345,10.1020689 4.26529188,10.1433862 C2.49824238,8.94518578 1.34052031,6.89998166 1.34052031,4.58621535 C1.34052031,3.34669769 1.66549492,2.21047317 2.23420051,1.21885904 C5.4636358,5.26795009 10.3179442,7.91225439 15.761269,8.20147523 C15.6597145,7.70566812 15.5987817,7.18920245 15.5987817,6.67273673 C15.5987817,2.99550102 18.5235533,0 22.1592068,0 C24.0481218,0 25.7542386,0.805686481 26.9525825,2.10718003 C28.4352792,1.81795924 29.8570432,1.26017629 31.1163198,0.495807065 C30.6288578,2.04520414 29.5930013,3.34669769 28.2321701,4.1730428 C29.5523795,4.0284324 30.831967,3.65657711 32.01,3.14011141 Z" id="Path"></path>
                </g>
            </g>
        </g>
    </g>
</svg>