<?xml version="1.0" encoding="UTF-8"?>
<svg width="32px" height="28px" viewBox="0 0 32 28" version="1.1" xmlns="http://www.w3.org/2000/svg" xmlns:xlink="http://www.w3.org/1999/xlink">
    <!-- Generator: Sketch 55 (78076) - https://sketchapp.com -->
    <title>icone/web</title>
    <desc>Created with Sketch.</desc>
    <defs>
        <path d="M16,1.62523001e-06 C8.2680135,3.25192609e-06 2,6.26801675 2,14.0000016 C2,14.4500033 2,14.8900033 2.07,15.3300033 L2.07,15.3300033 L2.07,15.3300033 C2.78820281,22.8558318 9.35157457,28.4521108 16.8963159,27.971707 C24.4410573,27.4913032 30.2416261,21.1077627 29.9994996,13.5516205 C29.7573731,5.99547827 23.5600197,-0.00360485555 16,1.62523001e-06 L16,1.62523001e-06 Z M26.35,19.0900033 C24.892234,19.084934 23.4408761,18.896795 22.03,18.5300033 C21.3357724,19.4735663 20.0413851,19.741073 19.03,19.1500033 C16.9741411,20.8043504 14.586993,21.9979244 12.03,22.6500033 C11.872026,23.4882215 11.2704631,24.1740799 10.46,24.4400033 L10.17,24.5000033 C8.87628298,23.7847613 7.72676405,22.8353061 6.78,21.7000033 L7.44,21.7000033 C7.63606203,20.7237981 8.43078269,19.9800592 9.41782619,19.8490558 C10.4048697,19.7180523 11.3660815,20.2287383 11.81,21.1200033 C14.0769017,20.5216417 16.1949149,19.4592299 18.03,18.0000033 C17.869838,17.6321294 17.8078191,17.2290068 17.85,16.8300033 C17.43,16.5900033 17.01,16.3400033 16.6,16.0700033 C14.4214618,14.6255515 12.5935219,12.7121938 11.25,10.4700033 C10.4319743,10.6945696 9.55667386,10.4527103 8.97,9.84000325 C7.10991851,11.2025945 5.42988624,12.7952651 3.97,14.5800033 C3.97,14.3800033 3.97,14.1900033 3.97,14.0100033 C3.97484687,13.4307133 4.02163589,12.8525346 4.11,12.2800033 C5.30950488,10.8079712 6.72565837,9.52668944 8.31,8.48000325 C8.19504333,7.57773055 8.62735823,6.69345005 9.41,6.23000325 C9.29,5.80000325 9.17,5.37000325 9.08,4.93000325 C9.08,4.79000325 9.08,4.64000325 8.97,4.29000325 C9.40651094,3.96941999 9.86422407,3.67875544 10.34,3.42000325 C10.44,4.01000325 10.48,4.32000325 10.55,4.63000325 C10.62,4.94000325 10.75,5.48000325 10.87,5.90000325 L11.12,5.90000325 C11.5485857,5.9991222 11.9403567,6.21754321 12.25,6.53000325 C16.1646293,5.14947758 20.4296729,5.12482415 24.36,6.46000325 C24.36,6.14000325 24.36,5.81000325 24.36,5.46000325 L24.36,5.46000325 C25.4763593,6.55993807 26.3664505,7.86789651 26.98,9.31000325 L26.98,9.31000325 C26.4933333,9.02333659 26,8.76333659 25.5,8.53000325 C24.9323692,11.2082785 23.7742251,13.7261317 22.11,15.9000033 C22.3250286,16.2597692 22.4390329,16.6708757 22.44,17.0900033 C24.0840366,17.4302942 25.7616226,17.581277 27.44,17.5400033 C27.2723089,18.0635017 27.0684859,18.5747301 26.83,19.0700033 L26.35,19.0900033 Z M12.97,7.87000325 C13.0713905,8.49995606 12.90055,9.14333409 12.5,9.64000325 C13.7254412,11.7346533 15.4113049,13.523105 17.43,14.8700033 C17.77,15.1000033 18.12,15.3000033 18.43,15.5000033 C19.0810394,14.7802687 20.1163356,14.5515405 21.01,14.9300033 C22.5687539,12.8654492 23.6327468,10.4706098 24.12,7.93000325 C20.5157738,6.65704409 16.5877171,6.63590656 12.97,7.87000325 Z" id="path-1"></path>
    </defs>
    <g id="icone/web" stroke="none" stroke-width="1" fill="none" fill-rule="evenodd">
        <mask id="mask-2" fill="white">
            <use xlink:href="#path-1"></use>
        </mask>
        <use id="Mask" fill="#000000" fill-rule="nonzero" xlink:href="#path-1"></use>
        <rect id="Rectangle" fill="#343A40" mask="url(#mask-2)" x="-2" y="-4" width="36" height="36"></rect>
    </g>
</svg>